<svg width="127" height="163" viewBox="0 0 127 163" fill="none" xmlns="http://www.w3.org/2000/svg">
<g clip-path="url(#clip0_2001_2778)">
<path d="M58.391 162.034C87.4146 162.034 110.943 159.256 110.943 155.83C110.943 152.404 87.4146 149.626 58.391 149.626C29.3674 149.626 5.83908 152.404 5.83908 155.83C5.83908 159.256 29.3674 162.034 58.391 162.034Z" fill="white"/>
<path fill-rule="evenodd" clip-rule="evenodd" d="M112.337 117.897C115.271 110.37 116.782 102.302 116.782 94.1553H107.585C107.585 101.056 106.317 107.89 103.852 114.266C101.387 120.642 97.7739 126.435 93.2195 131.315C88.6642 136.195 83.2572 140.066 77.3065 142.706C71.3559 145.348 64.9779 146.707 58.5368 146.707C52.0957 146.707 45.7176 145.348 39.7668 142.706C33.816 140.066 28.4089 136.195 23.8544 131.315C19.2998 126.435 15.687 120.642 13.2221 114.266C10.7572 107.89 9.4885 101.056 9.4885 94.1553H0C0 102.302 1.51032 110.37 4.44473 117.897C7.37914 125.424 11.6802 132.263 17.1023 138.024C22.5243 143.785 28.9613 148.355 36.0456 151.473C43.1299 154.59 50.7228 156.195 58.3908 156.195C66.0588 156.195 73.652 154.59 80.7362 151.473C87.8205 148.355 94.2573 143.785 99.6797 138.024C105.101 132.263 109.402 125.424 112.337 117.897Z" fill="white"/>
<path fill-rule="evenodd" clip-rule="evenodd" d="M99.0564 112.31C101.234 106.677 102.378 100.648 102.426 94.5538C97.4163 95.3399 86.4768 97.2558 79.1926 99.9944C73.4075 102.169 69.4697 105.937 65.6976 109.546C60.8027 114.23 56.1864 118.647 48.1724 118.971C41.804 119.229 37.9093 118.707 32.115 116.052C21.9955 111.415 13.8678 94.1553 13.8678 94.1553C13.8678 100.386 15.0132 106.555 17.2384 112.31C19.4637 118.067 22.7253 123.297 26.8371 127.702C30.9488 132.108 35.8302 135.603 41.2024 137.986C46.5747 140.371 52.3326 141.598 58.1476 141.598C63.9624 141.598 69.7204 140.371 75.0928 137.986C80.4648 135.603 85.3462 132.108 89.4577 127.702C93.5698 123.297 96.8317 118.067 99.0564 112.31Z" fill="#EBDACC"/>
<path fill-rule="evenodd" clip-rule="evenodd" d="M121.321 107.054C119.582 105.332 117.504 103.991 115.22 103.114L108.886 119.616L99.8687 134.818C101.973 136.066 104.314 136.864 106.743 137.16C109.171 137.458 111.635 137.247 113.978 136.542C116.321 135.836 118.492 134.653 120.354 133.065C122.216 131.478 123.728 129.521 124.794 127.319C125.861 125.117 126.458 122.717 126.549 120.272C126.64 117.827 126.222 115.389 125.322 113.114C124.422 110.839 123.059 108.775 121.321 107.054ZM117.048 112.593C116.028 111.583 114.808 110.796 113.467 110.281L109.749 119.967L104.456 128.891C105.692 129.624 107.065 130.092 108.491 130.266C109.917 130.44 111.363 130.316 112.738 129.903C114.114 129.489 115.388 128.794 116.481 127.862C117.574 126.93 118.462 125.782 119.087 124.489C119.714 123.196 120.064 121.788 120.117 120.353C120.17 118.917 119.925 117.486 119.398 116.151C118.869 114.815 118.069 113.604 117.048 112.593Z" fill="white"/>
<path d="M42.3366 21.8965C42.3366 21.8965 40.4985 33.0415 42.3366 39.7787C45.3678 50.8893 59.943 50.655 61.6785 62.0401C63.29 72.6108 51.8251 87.5861 51.8251 87.5861C51.8251 87.5861 53.5746 77.1166 51.8251 70.7987C48.9161 60.2935 35.6377 60.6245 33.213 49.997C30.6466 38.7482 42.3366 21.8965 42.3366 21.8965Z" fill="#EBDACC"/>
<path d="M48.1724 33.5746C44.3161 20.3335 59.1207 0 59.1207 0C59.1207 0 53.3545 17.9053 56.931 28.4654C60.6832 39.5443 74.822 38.9454 77.3678 50.3619C80.3538 63.7512 63.1351 82.4768 63.1351 82.4768C63.1351 82.4768 71.9508 65.4023 68.9741 54.7412C65.8573 43.5785 51.413 44.702 48.1724 33.5746Z" fill="#EBDACC"/>
</g>
<defs>
<clipPath id="clip0_2001_2778">
<rect width="127" height="162.034" fill="white"/>
</clipPath>
</defs>
</svg>
