<svg width="25" height="26" viewBox="0 0 25 26" fill="none" xmlns="http://www.w3.org/2000/svg">
<path d="M22.3214 0.786133H2.67857C1.96817 0.786133 1.28686 1.06834 0.784535 1.57067C0.282206 2.073 0 2.7543 0 3.4647L0 23.1076C0 23.818 0.282206 24.4993 0.784535 25.0016C1.28686 25.5039 1.96817 25.7861 2.67857 25.7861H10.3376V17.2867H6.82199V13.2861H10.3376V10.237C10.3376 6.76883 12.4023 4.8531 15.5647 4.8531C17.0792 4.8531 18.6629 5.12319 18.6629 5.12319V8.5272H16.918C15.1987 8.5272 14.6624 9.59417 14.6624 10.6885V13.2861H18.5006L17.8867 17.2867H14.6624V25.7861H22.3214C23.0318 25.7861 23.7131 25.5039 24.2155 25.0016C24.7178 24.4993 25 23.818 25 23.1076V3.4647C25 2.7543 24.7178 2.073 24.2155 1.57067C23.7131 1.06834 23.0318 0.786133 22.3214 0.786133Z" fill="#B2784A"/>
</svg>
