<svg width="212" height="17" viewBox="0 0 212 17" fill="none" xmlns="http://www.w3.org/2000/svg">
<path d="M9.63281 7.17969C9.63281 8.46615 9.39844 9.54167 8.92969 10.4062C8.46094 11.2656 7.78125 11.9141 6.89062 12.3516C6.00521 12.7839 4.92969 13 3.66406 13H0.5625V1.57812H4.00781C5.16927 1.57812 6.16927 1.79167 7.00781 2.21875C7.84635 2.64062 8.49219 3.26823 8.94531 4.10156C9.40365 4.92969 9.63281 5.95573 9.63281 7.17969ZM8.23438 7.22656C8.23438 6.20052 8.0625 5.35417 7.71875 4.6875C7.38021 4.02083 6.88021 3.52604 6.21875 3.20312C5.5625 2.875 4.75781 2.71094 3.80469 2.71094H1.89062V11.8594H3.50781C5.08073 11.8594 6.26042 11.4714 7.04688 10.6953C7.83854 9.91927 8.23438 8.76302 8.23438 7.22656ZM16.0734 4.28125C16.8026 4.28125 17.4276 4.44271 17.9484 4.76562C18.4693 5.08854 18.8677 5.54167 19.1438 6.125C19.4198 6.70312 19.5578 7.38021 19.5578 8.15625V8.96094H13.6438C13.6594 9.96615 13.9094 10.7318 14.3938 11.2578C14.8781 11.7839 15.5604 12.0469 16.4406 12.0469C16.9823 12.0469 17.4615 11.9974 17.8781 11.8984C18.2948 11.7995 18.7271 11.6536 19.175 11.4609V12.6016C18.7427 12.7943 18.313 12.9349 17.8859 13.0234C17.4641 13.112 16.9641 13.1562 16.3859 13.1562C15.563 13.1562 14.8443 12.9896 14.2297 12.6562C13.6203 12.3177 13.1464 11.8229 12.8078 11.1719C12.4693 10.5208 12.3 9.72396 12.3 8.78125C12.3 7.85938 12.4536 7.0625 12.7609 6.39062C13.0734 5.71354 13.5109 5.19271 14.0734 4.82812C14.6411 4.46354 15.3078 4.28125 16.0734 4.28125ZM16.0578 5.34375C15.3651 5.34375 14.813 5.57031 14.4016 6.02344C13.9901 6.47656 13.7453 7.10938 13.6672 7.92188H18.1984C18.1932 7.41146 18.1125 6.96354 17.9563 6.57812C17.8052 6.1875 17.5734 5.88542 17.2609 5.67188C16.9484 5.45312 16.5474 5.34375 16.0578 5.34375ZM28.1 10.6562C28.1 11.2031 27.962 11.6641 27.6859 12.0391C27.4151 12.4089 27.0245 12.6875 26.5141 12.875C26.0089 13.0625 25.4047 13.1562 24.7016 13.1562C24.1026 13.1562 23.5844 13.1094 23.1469 13.0156C22.7094 12.9219 22.3266 12.7891 21.9984 12.6172V11.4219C22.3474 11.5938 22.7641 11.75 23.2484 11.8906C23.7328 12.0312 24.2276 12.1016 24.7328 12.1016C25.4724 12.1016 26.0089 11.9818 26.3422 11.7422C26.6755 11.5026 26.8422 11.1771 26.8422 10.7656C26.8422 10.5312 26.7745 10.3255 26.6391 10.1484C26.5089 9.96615 26.2875 9.79167 25.975 9.625C25.6625 9.45312 25.2302 9.26562 24.6781 9.0625C24.1313 8.85417 23.6573 8.64844 23.2563 8.44531C22.8604 8.23698 22.5531 7.98438 22.3344 7.6875C22.1208 7.39062 22.0141 7.00521 22.0141 6.53125C22.0141 5.80729 22.3057 5.2526 22.8891 4.86719C23.4776 4.47656 24.2484 4.28125 25.2016 4.28125C25.7172 4.28125 26.199 4.33333 26.6469 4.4375C27.1 4.53646 27.5219 4.67188 27.9125 4.84375L27.475 5.88281C27.1208 5.73177 26.7432 5.60417 26.3422 5.5C25.9411 5.39583 25.5323 5.34375 25.1156 5.34375C24.5167 5.34375 24.0557 5.44271 23.7328 5.64062C23.4151 5.83854 23.2563 6.10938 23.2563 6.45312C23.2563 6.71875 23.3292 6.9375 23.475 7.10938C23.626 7.28125 23.8656 7.44271 24.1938 7.59375C24.5219 7.74479 24.9542 7.92188 25.4906 8.125C26.0271 8.32292 26.4906 8.52865 26.8813 8.74219C27.2719 8.95052 27.5714 9.20573 27.7797 9.50781C27.9932 9.80469 28.1 10.1875 28.1 10.6562ZM34.2828 4.28125C35.012 4.28125 35.637 4.44271 36.1578 4.76562C36.6786 5.08854 37.0771 5.54167 37.3531 6.125C37.6292 6.70312 37.7672 7.38021 37.7672 8.15625V8.96094H31.8531C31.8687 9.96615 32.1187 10.7318 32.6031 11.2578C33.0875 11.7839 33.7698 12.0469 34.65 12.0469C35.1917 12.0469 35.6708 11.9974 36.0875 11.8984C36.5042 11.7995 36.9365 11.6536 37.3844 11.4609V12.6016C36.9521 12.7943 36.5224 12.9349 36.0953 13.0234C35.6734 13.112 35.1734 13.1562 34.5953 13.1562C33.7724 13.1562 33.0536 12.9896 32.4391 12.6562C31.8297 12.3177 31.3557 11.8229 31.0172 11.1719C30.6786 10.5208 30.5094 9.72396 30.5094 8.78125C30.5094 7.85938 30.663 7.0625 30.9703 6.39062C31.2828 5.71354 31.7203 5.19271 32.2828 4.82812C32.8505 4.46354 33.5172 4.28125 34.2828 4.28125ZM34.2672 5.34375C33.5745 5.34375 33.0224 5.57031 32.6109 6.02344C32.1995 6.47656 31.9547 7.10938 31.8766 7.92188H36.4078C36.4026 7.41146 36.3219 6.96354 36.1656 6.57812C36.0146 6.1875 35.7828 5.88542 35.4703 5.67188C35.1578 5.45312 34.7568 5.34375 34.2672 5.34375ZM44.825 4.28125C45.8406 4.28125 46.6089 4.53125 47.1297 5.03125C47.6505 5.52604 47.9109 6.32292 47.9109 7.42188V13H46.6297V7.50781C46.6297 6.79427 46.4656 6.26042 46.1375 5.90625C45.8146 5.55208 45.3172 5.375 44.6453 5.375C43.6974 5.375 43.0307 5.64323 42.6453 6.17969C42.2599 6.71615 42.0672 7.49479 42.0672 8.51562V13H40.7703V4.4375H41.8172L42.0125 5.67188H42.0828C42.2651 5.36979 42.4969 5.11719 42.7781 4.91406C43.0594 4.70573 43.3745 4.54948 43.7234 4.44531C44.0724 4.33594 44.4396 4.28125 44.825 4.28125ZM53.2656 13L50.0156 4.4375H51.4062L53.2891 9.61719C53.4193 9.97135 53.5521 10.362 53.6875 10.7891C53.8229 11.2161 53.9167 11.5599 53.9688 11.8203H54.0234C54.0859 11.5599 54.1901 11.2161 54.3359 10.7891C54.4818 10.3568 54.6146 9.96615 54.7344 9.61719L56.6172 4.4375H58.0078L54.75 13H53.2656ZM67.5656 8.70312C67.5656 9.40625 67.4745 10.0339 67.2922 10.5859C67.1099 11.138 66.8469 11.6042 66.5031 11.9844C66.1594 12.3646 65.7427 12.6562 65.2531 12.8594C64.7687 13.0573 64.2193 13.1562 63.6047 13.1562C63.0318 13.1562 62.5057 13.0573 62.0266 12.8594C61.5526 12.6562 61.1411 12.3646 60.7922 11.9844C60.4484 11.6042 60.1802 11.138 59.9875 10.5859C59.8 10.0339 59.7062 9.40625 59.7062 8.70312C59.7062 7.76562 59.8651 6.96875 60.1828 6.3125C60.5005 5.65104 60.9536 5.14844 61.5422 4.80469C62.1359 4.45573 62.8417 4.28125 63.6594 4.28125C64.4406 4.28125 65.1229 4.45573 65.7062 4.80469C66.2948 5.15365 66.7505 5.65885 67.0734 6.32031C67.4016 6.97656 67.5656 7.77083 67.5656 8.70312ZM61.05 8.70312C61.05 9.39062 61.1411 9.98698 61.3234 10.4922C61.5057 10.9974 61.787 11.388 62.1672 11.6641C62.5474 11.9401 63.037 12.0781 63.6359 12.0781C64.2297 12.0781 64.7167 11.9401 65.0969 11.6641C65.4823 11.388 65.7661 10.9974 65.9484 10.4922C66.1307 9.98698 66.2219 9.39062 66.2219 8.70312C66.2219 8.02083 66.1307 7.43229 65.9484 6.9375C65.7661 6.4375 65.4849 6.05208 65.1047 5.78125C64.7245 5.51042 64.2323 5.375 63.6281 5.375C62.7375 5.375 62.0839 5.66927 61.6672 6.25781C61.2557 6.84635 61.05 7.66146 61.05 8.70312ZM71.9125 13H70.6078V0.84375H71.9125V13ZM77.3375 13L74.0875 4.4375H75.4781L77.3609 9.61719C77.4911 9.97135 77.624 10.362 77.7594 10.7891C77.8948 11.2161 77.9885 11.5599 78.0406 11.8203H78.0953C78.1578 11.5599 78.262 11.2161 78.4078 10.7891C78.5536 10.3568 78.6865 9.96615 78.8063 9.61719L80.6891 4.4375H82.0797L78.8219 13H77.3375ZM85.5516 4.4375V13H84.2547V4.4375H85.5516ZM84.9187 1.23438C85.1323 1.23438 85.3146 1.30469 85.4656 1.44531C85.6219 1.58073 85.7 1.79427 85.7 2.08594C85.7 2.3724 85.6219 2.58594 85.4656 2.72656C85.3146 2.86719 85.1323 2.9375 84.9187 2.9375C84.6948 2.9375 84.5073 2.86719 84.3562 2.72656C84.2104 2.58594 84.1375 2.3724 84.1375 2.08594C84.1375 1.79427 84.2104 1.58073 84.3562 1.44531C84.5073 1.30469 84.6948 1.23438 84.9187 1.23438ZM92.1484 13.1562C91.0651 13.1562 90.2057 12.7865 89.5703 12.0469C88.9401 11.3073 88.625 10.2083 88.625 8.75C88.625 7.27604 88.9479 6.16406 89.5938 5.41406C90.2396 4.65885 91.099 4.28125 92.1719 4.28125C92.625 4.28125 93.0208 4.34115 93.3594 4.46094C93.6979 4.58073 93.9896 4.74219 94.2344 4.94531C94.4792 5.14323 94.6849 5.36979 94.8516 5.625H94.9453C94.9245 5.46354 94.9036 5.24219 94.8828 4.96094C94.862 4.67969 94.8516 4.45052 94.8516 4.27344V0.84375H96.1484V13H95.1016L94.9062 11.7812H94.8516C94.6901 12.0365 94.4844 12.2682 94.2344 12.4766C93.9896 12.6849 93.6953 12.8516 93.3516 12.9766C93.013 13.0964 92.612 13.1562 92.1484 13.1562ZM92.3516 12.0781C93.2682 12.0781 93.9167 11.8177 94.2969 11.2969C94.6771 10.776 94.8672 10.0026 94.8672 8.97656V8.74219C94.8672 7.65365 94.6849 6.81771 94.3203 6.23438C93.9609 5.65104 93.3047 5.35938 92.3516 5.35938C91.5547 5.35938 90.9583 5.66667 90.5625 6.28125C90.1667 6.89062 89.9688 7.72396 89.9688 8.78125C89.9688 9.83333 90.1641 10.6458 90.5547 11.2188C90.9505 11.7917 91.5495 12.0781 92.3516 12.0781ZM107.081 8.70312C107.081 9.40625 106.99 10.0339 106.808 10.5859C106.626 11.138 106.363 11.6042 106.019 11.9844C105.675 12.3646 105.258 12.6562 104.769 12.8594C104.284 13.0573 103.735 13.1562 103.12 13.1562C102.547 13.1562 102.021 13.0573 101.542 12.8594C101.068 12.6562 100.657 12.3646 100.308 11.9844C99.9641 11.6042 99.6958 11.138 99.5031 10.5859C99.3156 10.0339 99.2219 9.40625 99.2219 8.70312C99.2219 7.76562 99.3807 6.96875 99.6984 6.3125C100.016 5.65104 100.469 5.14844 101.058 4.80469C101.652 4.45573 102.357 4.28125 103.175 4.28125C103.956 4.28125 104.639 4.45573 105.222 4.80469C105.81 5.15365 106.266 5.65885 106.589 6.32031C106.917 6.97656 107.081 7.77083 107.081 8.70312ZM100.566 8.70312C100.566 9.39062 100.657 9.98698 100.839 10.4922C101.021 10.9974 101.303 11.388 101.683 11.6641C102.063 11.9401 102.553 12.0781 103.152 12.0781C103.745 12.0781 104.232 11.9401 104.613 11.6641C104.998 11.388 105.282 10.9974 105.464 10.4922C105.646 9.98698 105.738 9.39062 105.738 8.70312C105.738 8.02083 105.646 7.43229 105.464 6.9375C105.282 6.4375 105.001 6.05208 104.62 5.78125C104.24 5.51042 103.748 5.375 103.144 5.375C102.253 5.375 101.599 5.66927 101.183 6.25781C100.771 6.84635 100.566 7.66146 100.566 8.70312ZM119.103 4.28125C120.171 4.28125 121.022 4.64844 121.658 5.38281C122.293 6.11719 122.611 7.22135 122.611 8.69531C122.611 9.66927 122.465 10.487 122.173 11.1484C121.882 11.8099 121.47 12.3099 120.939 12.6484C120.413 12.987 119.791 13.1562 119.072 13.1562C118.619 13.1562 118.22 13.0964 117.877 12.9766C117.533 12.8568 117.239 12.6953 116.994 12.4922C116.749 12.2891 116.546 12.0677 116.384 11.8281H116.291C116.306 12.0312 116.324 12.276 116.345 12.5625C116.371 12.849 116.384 13.099 116.384 13.3125V16.8281H115.08V4.4375H116.15L116.322 5.70312H116.384C116.551 5.44271 116.754 5.20573 116.994 4.99219C117.233 4.77344 117.525 4.60156 117.869 4.47656C118.218 4.34635 118.629 4.28125 119.103 4.28125ZM118.877 5.375C118.283 5.375 117.804 5.48958 117.439 5.71875C117.08 5.94792 116.817 6.29167 116.65 6.75C116.483 7.20312 116.395 7.77344 116.384 8.46094V8.71094C116.384 9.4349 116.463 10.0469 116.619 10.5469C116.78 11.0469 117.043 11.4271 117.408 11.6875C117.778 11.9479 118.272 12.0781 118.892 12.0781C119.423 12.0781 119.866 11.9349 120.22 11.6484C120.574 11.362 120.838 10.9635 121.009 10.4531C121.186 9.9375 121.275 9.34635 121.275 8.67969C121.275 7.66927 121.077 6.86719 120.681 6.27344C120.291 5.67448 119.689 5.375 118.877 5.375ZM133.059 8.70312C133.059 9.40625 132.968 10.0339 132.786 10.5859C132.604 11.138 132.341 11.6042 131.997 11.9844C131.653 12.3646 131.236 12.6562 130.747 12.8594C130.262 13.0573 129.713 13.1562 129.098 13.1562C128.526 13.1562 127.999 13.0573 127.52 12.8594C127.046 12.6562 126.635 12.3646 126.286 11.9844C125.942 11.6042 125.674 11.138 125.481 10.5859C125.294 10.0339 125.2 9.40625 125.2 8.70312C125.2 7.76562 125.359 6.96875 125.677 6.3125C125.994 5.65104 126.447 5.14844 127.036 4.80469C127.63 4.45573 128.335 4.28125 129.153 4.28125C129.934 4.28125 130.617 4.45573 131.2 4.80469C131.789 5.15365 132.244 5.65885 132.567 6.32031C132.895 6.97656 133.059 7.77083 133.059 8.70312ZM126.544 8.70312C126.544 9.39062 126.635 9.98698 126.817 10.4922C126.999 10.9974 127.281 11.388 127.661 11.6641C128.041 11.9401 128.531 12.0781 129.13 12.0781C129.723 12.0781 130.21 11.9401 130.591 11.6641C130.976 11.388 131.26 10.9974 131.442 10.4922C131.624 9.98698 131.716 9.39062 131.716 8.70312C131.716 8.02083 131.624 7.43229 131.442 6.9375C131.26 6.4375 130.979 6.05208 130.598 5.78125C130.218 5.51042 129.726 5.375 129.122 5.375C128.231 5.375 127.578 5.66927 127.161 6.25781C126.749 6.84635 126.544 7.66146 126.544 8.70312ZM139.992 4.28125C140.164 4.28125 140.344 4.29167 140.531 4.3125C140.719 4.32812 140.885 4.35156 141.031 4.38281L140.867 5.58594C140.727 5.54948 140.57 5.52083 140.398 5.5C140.227 5.47917 140.065 5.46875 139.914 5.46875C139.57 5.46875 139.245 5.53906 138.938 5.67969C138.635 5.8151 138.37 6.01302 138.141 6.27344C137.911 6.52865 137.732 6.83854 137.602 7.20312C137.471 7.5625 137.406 7.96354 137.406 8.40625V13H136.102V4.4375H137.18L137.32 6.01562H137.375C137.552 5.69792 137.766 5.40885 138.016 5.14844C138.266 4.88281 138.555 4.67188 138.883 4.51562C139.216 4.35938 139.586 4.28125 139.992 4.28125ZM157.241 1.57812V8.96875C157.241 9.77604 157.077 10.4948 156.748 11.125C156.426 11.7552 155.936 12.2526 155.28 12.6172C154.623 12.9766 153.801 13.1562 152.811 13.1562C151.399 13.1562 150.324 12.7734 149.584 12.0078C148.85 11.2422 148.483 10.2188 148.483 8.9375V1.57812H149.819V8.97656C149.819 9.94531 150.074 10.6927 150.584 11.2188C151.1 11.7448 151.868 12.0078 152.889 12.0078C153.587 12.0078 154.157 11.8828 154.6 11.6328C155.048 11.3776 155.379 11.0234 155.592 10.5703C155.811 10.112 155.92 9.58333 155.92 8.98438V1.57812H157.241ZM164.931 4.28125C165.947 4.28125 166.715 4.53125 167.236 5.03125C167.757 5.52604 168.017 6.32292 168.017 7.42188V13H166.736V7.50781C166.736 6.79427 166.572 6.26042 166.244 5.90625C165.921 5.55208 165.423 5.375 164.752 5.375C163.804 5.375 163.137 5.64323 162.752 6.17969C162.366 6.71615 162.173 7.49479 162.173 8.51562V13H160.877V4.4375H161.923L162.119 5.67188H162.189C162.371 5.36979 162.603 5.11719 162.884 4.91406C163.166 4.70573 163.481 4.54948 163.83 4.44531C164.179 4.33594 164.546 4.28125 164.931 4.28125ZM174.786 4.28125C175.515 4.28125 176.14 4.44271 176.661 4.76562C177.182 5.08854 177.58 5.54167 177.856 6.125C178.132 6.70312 178.27 7.38021 178.27 8.15625V8.96094H172.356C172.372 9.96615 172.622 10.7318 173.106 11.2578C173.591 11.7839 174.273 12.0469 175.153 12.0469C175.695 12.0469 176.174 11.9974 176.591 11.8984C177.007 11.7995 177.44 11.6536 177.887 11.4609V12.6016C177.455 12.7943 177.026 12.9349 176.598 13.0234C176.177 13.112 175.677 13.1562 175.098 13.1562C174.276 13.1562 173.557 12.9896 172.942 12.6562C172.333 12.3177 171.859 11.8229 171.52 11.1719C171.182 10.5208 171.012 9.72396 171.012 8.78125C171.012 7.85938 171.166 7.0625 171.473 6.39062C171.786 5.71354 172.223 5.19271 172.786 4.82812C173.354 4.46354 174.02 4.28125 174.786 4.28125ZM174.77 5.34375C174.078 5.34375 173.526 5.57031 173.114 6.02344C172.703 6.47656 172.458 7.10938 172.38 7.92188H176.911C176.906 7.41146 176.825 6.96354 176.669 6.57812C176.518 6.1875 176.286 5.88542 175.973 5.67188C175.661 5.45312 175.26 5.34375 174.77 5.34375ZM184.703 13.1562C183.932 13.1562 183.253 12.9974 182.664 12.6797C182.076 12.362 181.617 11.8776 181.289 11.2266C180.961 10.5755 180.797 9.75521 180.797 8.76562C180.797 7.72917 180.969 6.88281 181.312 6.22656C181.661 5.5651 182.141 5.07552 182.75 4.75781C183.359 4.4401 184.052 4.28125 184.828 4.28125C185.255 4.28125 185.667 4.32552 186.062 4.41406C186.464 4.4974 186.792 4.60417 187.047 4.73438L186.656 5.82031C186.396 5.71615 186.094 5.6224 185.75 5.53906C185.411 5.45573 185.094 5.41406 184.797 5.41406C184.203 5.41406 183.708 5.54167 183.312 5.79688C182.922 6.05208 182.628 6.42708 182.43 6.92188C182.237 7.41667 182.141 8.02604 182.141 8.75C182.141 9.44271 182.234 10.0339 182.422 10.5234C182.615 11.013 182.898 11.388 183.273 11.6484C183.654 11.9036 184.128 12.0312 184.695 12.0312C185.148 12.0312 185.557 11.9844 185.922 11.8906C186.286 11.7917 186.617 11.6771 186.914 11.5469V12.7031C186.628 12.849 186.307 12.9609 185.953 13.0391C185.604 13.1172 185.188 13.1562 184.703 13.1562ZM192.511 12.0938C192.724 12.0938 192.943 12.0755 193.167 12.0391C193.391 12.0026 193.573 11.9583 193.714 11.9062V12.9141C193.563 12.9818 193.352 13.0391 193.081 13.0859C192.816 13.1328 192.555 13.1562 192.3 13.1562C191.847 13.1562 191.435 13.0781 191.066 12.9219C190.696 12.7604 190.399 12.4896 190.175 12.1094C189.956 11.7292 189.847 11.2031 189.847 10.5312V5.45312H188.628V4.82031L189.855 4.3125L190.37 2.45312H191.152V4.4375H193.659V5.45312H191.152V10.4922C191.152 11.0286 191.274 11.4297 191.519 11.6953C191.769 11.9609 192.099 12.0938 192.511 12.0938ZM199.752 16.0078C199.491 16.0078 199.262 15.9896 199.064 15.9531C198.866 15.9167 198.697 15.8672 198.556 15.8047V14.6719C198.723 14.724 198.903 14.763 199.095 14.7891C199.288 14.8203 199.496 14.8359 199.72 14.8359C200.012 14.8359 200.28 14.7786 200.525 14.6641C200.77 14.5495 200.965 14.3542 201.111 14.0781C201.257 13.8021 201.33 13.4219 201.33 12.9375V1.57812H202.666V12.8359C202.666 13.5495 202.546 14.1406 202.306 14.6094C202.072 15.0781 201.736 15.4271 201.298 15.6562C200.866 15.8906 200.351 16.0078 199.752 16.0078ZM210.192 4.28125C210.364 4.28125 210.544 4.29167 210.731 4.3125C210.919 4.32812 211.085 4.35156 211.231 4.38281L211.067 5.58594C210.927 5.54948 210.77 5.52083 210.598 5.5C210.427 5.47917 210.265 5.46875 210.114 5.46875C209.77 5.46875 209.445 5.53906 209.137 5.67969C208.835 5.8151 208.57 6.01302 208.341 6.27344C208.111 6.52865 207.932 6.83854 207.802 7.20312C207.671 7.5625 207.606 7.96354 207.606 8.40625V13H206.302V4.4375H207.38L207.52 6.01562H207.575C207.752 5.69792 207.966 5.40885 208.216 5.14844C208.466 4.88281 208.755 4.67188 209.083 4.51562C209.416 4.35938 209.786 4.28125 210.192 4.28125Z" fill="#FFDAB8"/>
</svg>
