<svg width="127" height="163" viewBox="0 0 127 163" fill="none" xmlns="http://www.w3.org/2000/svg">
<g clip-path="url(#clip0_2001_3173)">
<path d="M58.3907 162.035C87.4143 162.035 110.943 159.257 110.943 155.83C110.943 152.404 87.4143 149.626 58.3907 149.626C29.3671 149.626 5.83887 152.404 5.83887 155.83C5.83887 159.257 29.3671 162.035 58.3907 162.035Z" fill="white"/>
<path fill-rule="evenodd" clip-rule="evenodd" d="M112.337 117.897C115.271 110.37 116.782 102.302 116.782 94.1553H107.585C107.585 101.056 106.317 107.89 103.852 114.266C101.387 120.642 97.7739 126.435 93.2195 131.315C88.6642 136.195 83.2572 140.066 77.3065 142.706C71.3559 145.348 64.9779 146.707 58.5368 146.707C52.0957 146.707 45.7176 145.348 39.7668 142.706C33.816 140.066 28.4089 136.195 23.8544 131.315C19.2998 126.435 15.687 120.642 13.2221 114.266C10.7572 107.89 9.4885 101.056 9.4885 94.1553H0C0 102.302 1.51032 110.37 4.44473 117.897C7.37914 125.424 11.6802 132.263 17.1023 138.024C22.5243 143.785 28.9613 148.355 36.0456 151.473C43.1299 154.59 50.7228 156.195 58.3908 156.195C66.0588 156.195 73.652 154.59 80.7362 151.473C87.8205 148.355 94.2573 143.785 99.6797 138.024C105.101 132.263 109.402 125.424 112.337 117.897Z" fill="white"/>
<path fill-rule="evenodd" clip-rule="evenodd" d="M99.0562 112.31C101.234 106.677 102.378 100.648 102.425 94.5538C97.4162 95.3399 86.4767 97.2558 79.1924 99.9944C73.4073 102.169 69.4695 105.937 65.6974 109.546C60.8025 114.23 56.1862 118.647 48.1723 118.971C41.8039 119.229 37.9092 118.707 32.1148 116.052C21.9954 111.415 13.8677 94.1553 13.8677 94.1553C13.8677 100.386 15.013 106.555 17.2383 112.31C19.4636 118.067 22.7251 123.297 26.8369 127.702C30.9487 132.108 35.83 135.603 41.2022 137.986C46.5746 140.371 52.3325 141.598 58.1474 141.598C63.9623 141.598 69.7203 140.371 75.0927 137.986C80.4646 135.603 85.3461 132.108 89.4575 127.702C93.5697 123.297 96.8316 118.067 99.0562 112.31Z" fill="#EBDACC"/>
<path fill-rule="evenodd" clip-rule="evenodd" d="M121.321 107.055C119.582 105.333 117.504 103.991 115.22 103.115L108.886 119.616L99.8687 134.819C101.973 136.067 104.314 136.865 106.743 137.161C109.171 137.458 111.635 137.247 113.978 136.542C116.321 135.837 118.492 134.653 120.354 133.066C122.216 131.478 123.728 129.521 124.794 127.319C125.861 125.117 126.458 122.717 126.549 120.272C126.64 117.827 126.222 115.39 125.322 113.115C124.422 110.839 123.059 108.776 121.321 107.055ZM117.048 112.594C116.028 111.584 114.808 110.796 113.467 110.281L109.749 119.968L104.456 128.891C105.692 129.624 107.065 130.092 108.491 130.266C109.917 130.44 111.363 130.317 112.738 129.903C114.114 129.489 115.388 128.794 116.481 127.862C117.574 126.931 118.462 125.782 119.087 124.489C119.713 123.197 120.064 121.788 120.117 120.353C120.17 118.917 119.925 117.487 119.397 116.151C118.869 114.816 118.069 113.605 117.048 112.594Z" fill="white"/>
<path d="M42.3365 21.8965C42.3365 21.8965 40.4984 33.0415 42.3365 39.7787C45.3677 50.8893 59.9429 50.655 61.6785 62.0401C63.2899 72.6108 51.825 87.5861 51.825 87.5861C51.825 87.5861 53.5745 77.1166 51.825 70.7987C48.916 60.2935 35.6376 60.6245 33.2129 49.997C30.6465 38.7482 42.3365 21.8965 42.3365 21.8965Z" fill="#EBDACC"/>
<path d="M48.1722 33.5746C44.3159 20.3335 59.1205 0 59.1205 0C59.1205 0 53.3543 17.9053 56.9308 28.4654C60.6829 39.5443 74.8218 38.9454 77.3676 50.3619C80.3536 63.7512 63.1348 82.4768 63.1348 82.4768C63.1348 82.4768 71.9506 65.4023 68.9739 54.7412C65.8571 43.5785 51.4128 44.702 48.1722 33.5746Z" fill="#EBDACC"/>
</g>
<defs>
<clipPath id="clip0_2001_3173">
<rect width="127" height="162.034" fill="white"/>
</clipPath>
</defs>
</svg>
