<svg width="255" height="14" viewBox="0 0 255 14" fill="none" xmlns="http://www.w3.org/2000/svg">
<path d="M5.07031 13H3.73438V2.75H0.140625V1.57812H8.64844V2.75H5.07031V13ZM18.3625 8.70312C18.3625 9.40625 18.2714 10.0339 18.0891 10.5859C17.9068 11.138 17.6438 11.6042 17.3 11.9844C16.9563 12.3646 16.5396 12.6562 16.05 12.8594C15.5656 13.0573 15.0161 13.1562 14.4016 13.1562C13.8286 13.1562 13.3026 13.0573 12.8234 12.8594C12.3495 12.6562 11.938 12.3646 11.5891 11.9844C11.2453 11.6042 10.9771 11.138 10.7844 10.5859C10.5969 10.0339 10.5031 9.40625 10.5031 8.70312C10.5031 7.76562 10.662 6.96875 10.9797 6.3125C11.2974 5.65104 11.7505 5.14844 12.3391 4.80469C12.9328 4.45573 13.6385 4.28125 14.4563 4.28125C15.2375 4.28125 15.9198 4.45573 16.5031 4.80469C17.0917 5.15365 17.5474 5.65885 17.8703 6.32031C18.1984 6.97656 18.3625 7.77083 18.3625 8.70312ZM11.8469 8.70312C11.8469 9.39062 11.938 9.98698 12.1203 10.4922C12.3026 10.9974 12.5839 11.388 12.9641 11.6641C13.3443 11.9401 13.8339 12.0781 14.4328 12.0781C15.0266 12.0781 15.5135 11.9401 15.8938 11.6641C16.2792 11.388 16.563 10.9974 16.7453 10.4922C16.9276 9.98698 17.0188 9.39062 17.0188 8.70312C17.0188 8.02083 16.9276 7.43229 16.7453 6.9375C16.563 6.4375 16.2818 6.05208 15.9016 5.78125C15.5214 5.51042 15.0292 5.375 14.425 5.375C13.5344 5.375 12.8807 5.66927 12.4641 6.25781C12.0526 6.84635 11.8469 7.66146 11.8469 8.70312ZM24.4516 13.1562C23.3682 13.1562 22.5089 12.7865 21.8734 12.0469C21.2432 11.3073 20.9281 10.2083 20.9281 8.75C20.9281 7.27604 21.251 6.16406 21.8969 5.41406C22.5427 4.65885 23.4021 4.28125 24.475 4.28125C24.9281 4.28125 25.324 4.34115 25.6625 4.46094C26.001 4.58073 26.2927 4.74219 26.5375 4.94531C26.7823 5.14323 26.988 5.36979 27.1547 5.625H27.2484C27.2276 5.46354 27.2068 5.24219 27.1859 4.96094C27.1651 4.67969 27.1547 4.45052 27.1547 4.27344V0.84375H28.4516V13H27.4047L27.2094 11.7812H27.1547C26.9932 12.0365 26.7875 12.2682 26.5375 12.4766C26.2927 12.6849 25.9984 12.8516 25.6547 12.9766C25.3161 13.0964 24.9151 13.1562 24.4516 13.1562ZM24.6547 12.0781C25.5714 12.0781 26.2198 11.8177 26.6 11.2969C26.9802 10.776 27.1703 10.0026 27.1703 8.97656V8.74219C27.1703 7.65365 26.988 6.81771 26.6234 6.23438C26.2641 5.65104 25.6078 5.35938 24.6547 5.35938C23.8578 5.35938 23.2615 5.66667 22.8656 6.28125C22.4698 6.89062 22.2719 7.72396 22.2719 8.78125C22.2719 9.83333 22.4672 10.6458 22.8578 11.2188C23.2536 11.7917 23.8526 12.0781 24.6547 12.0781ZM39.3844 8.70312C39.3844 9.40625 39.2932 10.0339 39.1109 10.5859C38.9286 11.138 38.6656 11.6042 38.3219 11.9844C37.9781 12.3646 37.5615 12.6562 37.0719 12.8594C36.5875 13.0573 36.038 13.1562 35.4234 13.1562C34.8505 13.1562 34.3245 13.0573 33.8453 12.8594C33.3714 12.6562 32.9599 12.3646 32.6109 11.9844C32.2672 11.6042 31.999 11.138 31.8062 10.5859C31.6187 10.0339 31.525 9.40625 31.525 8.70312C31.525 7.76562 31.6839 6.96875 32.0016 6.3125C32.3193 5.65104 32.7724 5.14844 33.3609 4.80469C33.9547 4.45573 34.6604 4.28125 35.4781 4.28125C36.2594 4.28125 36.9417 4.45573 37.525 4.80469C38.1135 5.15365 38.5693 5.65885 38.8922 6.32031C39.2203 6.97656 39.3844 7.77083 39.3844 8.70312ZM32.8687 8.70312C32.8687 9.39062 32.9599 9.98698 33.1422 10.4922C33.3245 10.9974 33.6057 11.388 33.9859 11.6641C34.3661 11.9401 34.8557 12.0781 35.4547 12.0781C36.0484 12.0781 36.5354 11.9401 36.9156 11.6641C37.301 11.388 37.5849 10.9974 37.7672 10.4922C37.9495 9.98698 38.0406 9.39062 38.0406 8.70312C38.0406 8.02083 37.9495 7.43229 37.7672 6.9375C37.5849 6.4375 37.3036 6.05208 36.9234 5.78125C36.5432 5.51042 36.051 5.375 35.4469 5.375C34.5562 5.375 33.9026 5.66927 33.4859 6.25781C33.0745 6.84635 32.8687 7.66146 32.8687 8.70312ZM47.9656 10.6562C47.9656 11.2031 47.8276 11.6641 47.5516 12.0391C47.2807 12.4089 46.8901 12.6875 46.3797 12.875C45.8745 13.0625 45.2703 13.1562 44.5672 13.1562C43.9682 13.1562 43.45 13.1094 43.0125 13.0156C42.575 12.9219 42.1922 12.7891 41.8641 12.6172V11.4219C42.213 11.5938 42.6297 11.75 43.1141 11.8906C43.5984 12.0312 44.0932 12.1016 44.5984 12.1016C45.338 12.1016 45.8745 11.9818 46.2078 11.7422C46.5411 11.5026 46.7078 11.1771 46.7078 10.7656C46.7078 10.5312 46.6401 10.3255 46.5047 10.1484C46.3745 9.96615 46.1531 9.79167 45.8406 9.625C45.5281 9.45312 45.0958 9.26562 44.5438 9.0625C43.9969 8.85417 43.5229 8.64844 43.1219 8.44531C42.726 8.23698 42.4188 7.98438 42.2 7.6875C41.9865 7.39062 41.8797 7.00521 41.8797 6.53125C41.8797 5.80729 42.1714 5.2526 42.7547 4.86719C43.3432 4.47656 44.1141 4.28125 45.0672 4.28125C45.5828 4.28125 46.0646 4.33333 46.5125 4.4375C46.9656 4.53646 47.3875 4.67188 47.7781 4.84375L47.3406 5.88281C46.9865 5.73177 46.6089 5.60417 46.2078 5.5C45.8068 5.39583 45.3979 5.34375 44.9813 5.34375C44.3823 5.34375 43.9214 5.44271 43.5984 5.64062C43.2807 5.83854 43.1219 6.10938 43.1219 6.45312C43.1219 6.71875 43.1948 6.9375 43.3406 7.10938C43.4917 7.28125 43.7313 7.44271 44.0594 7.59375C44.3875 7.74479 44.8198 7.92188 45.3563 8.125C45.8927 8.32292 46.3563 8.52865 46.7469 8.74219C47.1375 8.95052 47.437 9.20573 47.6453 9.50781C47.8589 9.80469 47.9656 10.1875 47.9656 10.6562ZM63.1906 8.70312C63.1906 9.40625 63.0995 10.0339 62.9172 10.5859C62.7349 11.138 62.4719 11.6042 62.1281 11.9844C61.7844 12.3646 61.3677 12.6562 60.8781 12.8594C60.3937 13.0573 59.8443 13.1562 59.2297 13.1562C58.6568 13.1562 58.1307 13.0573 57.6516 12.8594C57.1776 12.6562 56.7661 12.3646 56.4172 11.9844C56.0734 11.6042 55.8052 11.138 55.6125 10.5859C55.425 10.0339 55.3312 9.40625 55.3312 8.70312C55.3312 7.76562 55.4901 6.96875 55.8078 6.3125C56.1255 5.65104 56.5786 5.14844 57.1672 4.80469C57.7609 4.45573 58.4667 4.28125 59.2844 4.28125C60.0656 4.28125 60.7479 4.45573 61.3312 4.80469C61.9198 5.15365 62.3755 5.65885 62.6984 6.32031C63.0266 6.97656 63.1906 7.77083 63.1906 8.70312ZM56.675 8.70312C56.675 9.39062 56.7661 9.98698 56.9484 10.4922C57.1307 10.9974 57.412 11.388 57.7922 11.6641C58.1724 11.9401 58.662 12.0781 59.2609 12.0781C59.8547 12.0781 60.3417 11.9401 60.7219 11.6641C61.1073 11.388 61.3911 10.9974 61.5734 10.4922C61.7557 9.98698 61.8469 9.39062 61.8469 8.70312C61.8469 8.02083 61.7557 7.43229 61.5734 6.9375C61.3911 6.4375 61.1099 6.05208 60.7297 5.78125C60.3495 5.51042 59.8573 5.375 59.2531 5.375C58.3625 5.375 57.7089 5.66927 57.2922 6.25781C56.8807 6.84635 56.675 7.66146 56.675 8.70312ZM71.7719 10.6562C71.7719 11.2031 71.6339 11.6641 71.3578 12.0391C71.087 12.4089 70.6964 12.6875 70.1859 12.875C69.6807 13.0625 69.0766 13.1562 68.3734 13.1562C67.7745 13.1562 67.2562 13.1094 66.8187 13.0156C66.3812 12.9219 65.9984 12.7891 65.6703 12.6172V11.4219C66.0193 11.5938 66.4359 11.75 66.9203 11.8906C67.4047 12.0312 67.8995 12.1016 68.4047 12.1016C69.1443 12.1016 69.6807 11.9818 70.0141 11.7422C70.3474 11.5026 70.5141 11.1771 70.5141 10.7656C70.5141 10.5312 70.4464 10.3255 70.3109 10.1484C70.1807 9.96615 69.9594 9.79167 69.6469 9.625C69.3344 9.45312 68.9021 9.26562 68.35 9.0625C67.8031 8.85417 67.3292 8.64844 66.9281 8.44531C66.5323 8.23698 66.225 7.98438 66.0062 7.6875C65.7927 7.39062 65.6859 7.00521 65.6859 6.53125C65.6859 5.80729 65.9776 5.2526 66.5609 4.86719C67.1495 4.47656 67.9203 4.28125 68.8734 4.28125C69.3891 4.28125 69.8708 4.33333 70.3187 4.4375C70.7719 4.53646 71.1937 4.67188 71.5844 4.84375L71.1469 5.88281C70.7927 5.73177 70.4151 5.60417 70.0141 5.5C69.613 5.39583 69.2042 5.34375 68.7875 5.34375C68.1885 5.34375 67.7276 5.44271 67.4047 5.64062C67.087 5.83854 66.9281 6.10938 66.9281 6.45312C66.9281 6.71875 67.001 6.9375 67.1469 7.10938C67.2979 7.28125 67.5375 7.44271 67.8656 7.59375C68.1937 7.74479 68.626 7.92188 69.1625 8.125C69.699 8.32292 70.1625 8.52865 70.5531 8.74219C70.9437 8.95052 71.2432 9.20573 71.4516 9.50781C71.6651 9.80469 71.7719 10.1875 71.7719 10.6562ZM82.6609 13.1562C81.5776 13.1562 80.7182 12.7865 80.0828 12.0469C79.4526 11.3073 79.1375 10.2083 79.1375 8.75C79.1375 7.27604 79.4604 6.16406 80.1062 5.41406C80.7521 4.65885 81.6115 4.28125 82.6844 4.28125C83.1375 4.28125 83.5333 4.34115 83.8719 4.46094C84.2104 4.58073 84.5021 4.74219 84.7469 4.94531C84.9917 5.14323 85.1974 5.36979 85.3641 5.625H85.4578C85.437 5.46354 85.4161 5.24219 85.3953 4.96094C85.3745 4.67969 85.3641 4.45052 85.3641 4.27344V0.84375H86.6609V13H85.6141L85.4187 11.7812H85.3641C85.2026 12.0365 84.9969 12.2682 84.7469 12.4766C84.5021 12.6849 84.2078 12.8516 83.8641 12.9766C83.5255 13.0964 83.1245 13.1562 82.6609 13.1562ZM82.8641 12.0781C83.7807 12.0781 84.4292 11.8177 84.8094 11.2969C85.1896 10.776 85.3797 10.0026 85.3797 8.97656V8.74219C85.3797 7.65365 85.1974 6.81771 84.8328 6.23438C84.4734 5.65104 83.8172 5.35938 82.8641 5.35938C82.0672 5.35938 81.4708 5.66667 81.075 6.28125C80.6792 6.89062 80.4812 7.72396 80.4812 8.78125C80.4812 9.83333 80.6766 10.6458 81.0672 11.2188C81.463 11.7917 82.062 12.0781 82.8641 12.0781ZM91.5078 4.4375V13H90.2109V4.4375H91.5078ZM90.875 1.23438C91.0885 1.23438 91.2708 1.30469 91.4219 1.44531C91.5781 1.58073 91.6562 1.79427 91.6562 2.08594C91.6562 2.3724 91.5781 2.58594 91.4219 2.72656C91.2708 2.86719 91.0885 2.9375 90.875 2.9375C90.651 2.9375 90.4635 2.86719 90.3125 2.72656C90.1667 2.58594 90.0938 2.3724 90.0938 2.08594C90.0938 1.79427 90.1667 1.58073 90.3125 1.44531C90.4635 1.30469 90.651 1.23438 90.875 1.23438ZM98.9484 4.28125C99.1203 4.28125 99.3 4.29167 99.4875 4.3125C99.675 4.32812 99.8417 4.35156 99.9875 4.38281L99.8234 5.58594C99.6828 5.54948 99.5266 5.52083 99.3547 5.5C99.1828 5.47917 99.0214 5.46875 98.8703 5.46875C98.5266 5.46875 98.201 5.53906 97.8938 5.67969C97.5917 5.8151 97.326 6.01302 97.0969 6.27344C96.8677 6.52865 96.688 6.83854 96.5578 7.20312C96.4276 7.5625 96.3625 7.96354 96.3625 8.40625V13H95.0578V4.4375H96.1359L96.2766 6.01562H96.3313C96.5083 5.69792 96.7219 5.40885 96.9719 5.14844C97.2219 4.88281 97.5109 4.67188 97.8391 4.51562C98.1724 4.35938 98.5422 4.28125 98.9484 4.28125ZM105.702 4.28125C106.431 4.28125 107.056 4.44271 107.577 4.76562C108.097 5.08854 108.496 5.54167 108.772 6.125C109.048 6.70312 109.186 7.38021 109.186 8.15625V8.96094H103.272C103.287 9.96615 103.537 10.7318 104.022 11.2578C104.506 11.7839 105.189 12.0469 106.069 12.0469C106.61 12.0469 107.09 11.9974 107.506 11.8984C107.923 11.7995 108.355 11.6536 108.803 11.4609V12.6016C108.371 12.7943 107.941 12.9349 107.514 13.0234C107.092 13.112 106.592 13.1562 106.014 13.1562C105.191 13.1562 104.472 12.9896 103.858 12.6562C103.248 12.3177 102.774 11.8229 102.436 11.1719C102.097 10.5208 101.928 9.72396 101.928 8.78125C101.928 7.85938 102.082 7.0625 102.389 6.39062C102.702 5.71354 103.139 5.19271 103.702 4.82812C104.269 4.46354 104.936 4.28125 105.702 4.28125ZM105.686 5.34375C104.993 5.34375 104.441 5.57031 104.03 6.02344C103.618 6.47656 103.373 7.10938 103.295 7.92188H107.827C107.821 7.41146 107.741 6.96354 107.584 6.57812C107.433 6.1875 107.202 5.88542 106.889 5.67188C106.577 5.45312 106.176 5.34375 105.686 5.34375ZM113.486 4.4375V13H112.189V4.4375H113.486ZM112.853 1.23438C113.067 1.23438 113.249 1.30469 113.4 1.44531C113.556 1.58073 113.634 1.79427 113.634 2.08594C113.634 2.3724 113.556 2.58594 113.4 2.72656C113.249 2.86719 113.067 2.9375 112.853 2.9375C112.629 2.9375 112.442 2.86719 112.291 2.72656C112.145 2.58594 112.072 2.3724 112.072 2.08594C112.072 1.79427 112.145 1.58073 112.291 1.44531C112.442 1.30469 112.629 1.23438 112.853 1.23438ZM119.802 12.0938C120.015 12.0938 120.234 12.0755 120.458 12.0391C120.682 12.0026 120.864 11.9583 121.005 11.9062V12.9141C120.854 12.9818 120.643 13.0391 120.372 13.0859C120.106 13.1328 119.846 13.1562 119.591 13.1562C119.137 13.1562 118.726 13.0781 118.356 12.9219C117.986 12.7604 117.69 12.4896 117.466 12.1094C117.247 11.7292 117.137 11.2031 117.137 10.5312V5.45312H115.919V4.82031L117.145 4.3125L117.661 2.45312H118.442V4.4375H120.95V5.45312H118.442V10.4922C118.442 11.0286 118.565 11.4297 118.809 11.6953C119.059 11.9609 119.39 12.0938 119.802 12.0938ZM130.922 8.70312C130.922 9.40625 130.831 10.0339 130.648 10.5859C130.466 11.138 130.203 11.6042 129.859 11.9844C129.516 12.3646 129.099 12.6562 128.609 12.8594C128.125 13.0573 127.576 13.1562 126.961 13.1562C126.388 13.1562 125.862 13.0573 125.383 12.8594C124.909 12.6562 124.497 12.3646 124.148 11.9844C123.805 11.6042 123.536 11.138 123.344 10.5859C123.156 10.0339 123.062 9.40625 123.062 8.70312C123.062 7.76562 123.221 6.96875 123.539 6.3125C123.857 5.65104 124.31 5.14844 124.898 4.80469C125.492 4.45573 126.198 4.28125 127.016 4.28125C127.797 4.28125 128.479 4.45573 129.062 4.80469C129.651 5.15365 130.107 5.65885 130.43 6.32031C130.758 6.97656 130.922 7.77083 130.922 8.70312ZM124.406 8.70312C124.406 9.39062 124.497 9.98698 124.68 10.4922C124.862 10.9974 125.143 11.388 125.523 11.6641C125.904 11.9401 126.393 12.0781 126.992 12.0781C127.586 12.0781 128.073 11.9401 128.453 11.6641C128.839 11.388 129.122 10.9974 129.305 10.4922C129.487 9.98698 129.578 9.39062 129.578 8.70312C129.578 8.02083 129.487 7.43229 129.305 6.9375C129.122 6.4375 128.841 6.05208 128.461 5.78125C128.081 5.51042 127.589 5.375 126.984 5.375C126.094 5.375 125.44 5.66927 125.023 6.25781C124.612 6.84635 124.406 7.66146 124.406 8.70312ZM139.503 10.6562C139.503 11.2031 139.365 11.6641 139.089 12.0391C138.818 12.4089 138.428 12.6875 137.917 12.875C137.412 13.0625 136.808 13.1562 136.105 13.1562C135.506 13.1562 134.988 13.1094 134.55 13.0156C134.113 12.9219 133.73 12.7891 133.402 12.6172V11.4219C133.751 11.5938 134.167 11.75 134.652 11.8906C135.136 12.0312 135.631 12.1016 136.136 12.1016C136.876 12.1016 137.412 11.9818 137.745 11.7422C138.079 11.5026 138.245 11.1771 138.245 10.7656C138.245 10.5312 138.178 10.3255 138.042 10.1484C137.912 9.96615 137.691 9.79167 137.378 9.625C137.066 9.45312 136.633 9.26562 136.081 9.0625C135.534 8.85417 135.06 8.64844 134.659 8.44531C134.264 8.23698 133.956 7.98438 133.738 7.6875C133.524 7.39062 133.417 7.00521 133.417 6.53125C133.417 5.80729 133.709 5.2526 134.292 4.86719C134.881 4.47656 135.652 4.28125 136.605 4.28125C137.12 4.28125 137.602 4.33333 138.05 4.4375C138.503 4.53646 138.925 4.67188 139.316 4.84375L138.878 5.88281C138.524 5.73177 138.146 5.60417 137.745 5.5C137.344 5.39583 136.935 5.34375 136.519 5.34375C135.92 5.34375 135.459 5.44271 135.136 5.64062C134.818 5.83854 134.659 6.10938 134.659 6.45312C134.659 6.71875 134.732 6.9375 134.878 7.10938C135.029 7.28125 135.269 7.44271 135.597 7.59375C135.925 7.74479 136.357 7.92188 136.894 8.125C137.43 8.32292 137.894 8.52865 138.284 8.74219C138.675 8.95052 138.974 9.20573 139.183 9.50781C139.396 9.80469 139.503 10.1875 139.503 10.6562ZM151.236 4.28125C151.408 4.28125 151.587 4.29167 151.775 4.3125C151.962 4.32812 152.129 4.35156 152.275 4.38281L152.111 5.58594C151.97 5.54948 151.814 5.52083 151.642 5.5C151.47 5.47917 151.309 5.46875 151.158 5.46875C150.814 5.46875 150.489 5.53906 150.181 5.67969C149.879 5.8151 149.614 6.01302 149.384 6.27344C149.155 6.52865 148.976 6.83854 148.845 7.20312C148.715 7.5625 148.65 7.96354 148.65 8.40625V13H147.345V4.4375H148.423L148.564 6.01562H148.619C148.796 5.69792 149.009 5.40885 149.259 5.14844C149.509 4.88281 149.798 4.67188 150.127 4.51562C150.46 4.35938 150.83 4.28125 151.236 4.28125ZM157.989 4.28125C158.718 4.28125 159.343 4.44271 159.864 4.76562C160.385 5.08854 160.783 5.54167 161.059 6.125C161.335 6.70312 161.473 7.38021 161.473 8.15625V8.96094H155.559C155.575 9.96615 155.825 10.7318 156.309 11.2578C156.794 11.7839 157.476 12.0469 158.356 12.0469C158.898 12.0469 159.377 11.9974 159.794 11.8984C160.21 11.7995 160.643 11.6536 161.091 11.4609V12.6016C160.658 12.7943 160.229 12.9349 159.802 13.0234C159.38 13.112 158.88 13.1562 158.302 13.1562C157.479 13.1562 156.76 12.9896 156.145 12.6562C155.536 12.3177 155.062 11.8229 154.723 11.1719C154.385 10.5208 154.216 9.72396 154.216 8.78125C154.216 7.85938 154.369 7.0625 154.677 6.39062C154.989 5.71354 155.427 5.19271 155.989 4.82812C156.557 4.46354 157.223 4.28125 157.989 4.28125ZM157.973 5.34375C157.281 5.34375 156.729 5.57031 156.317 6.02344C155.906 6.47656 155.661 7.10938 155.583 7.92188H160.114C160.109 7.41146 160.028 6.96354 159.872 6.57812C159.721 6.1875 159.489 5.88542 159.177 5.67188C158.864 5.45312 158.463 5.34375 157.973 5.34375ZM170.016 10.6562C170.016 11.2031 169.878 11.6641 169.602 12.0391C169.331 12.4089 168.94 12.6875 168.43 12.875C167.924 13.0625 167.32 13.1562 166.617 13.1562C166.018 13.1562 165.5 13.1094 165.062 13.0156C164.625 12.9219 164.242 12.7891 163.914 12.6172V11.4219C164.263 11.5938 164.68 11.75 165.164 11.8906C165.648 12.0312 166.143 12.1016 166.648 12.1016C167.388 12.1016 167.924 11.9818 168.258 11.7422C168.591 11.5026 168.758 11.1771 168.758 10.7656C168.758 10.5312 168.69 10.3255 168.555 10.1484C168.424 9.96615 168.203 9.79167 167.891 9.625C167.578 9.45312 167.146 9.26562 166.594 9.0625C166.047 8.85417 165.573 8.64844 165.172 8.44531C164.776 8.23698 164.469 7.98438 164.25 7.6875C164.036 7.39062 163.93 7.00521 163.93 6.53125C163.93 5.80729 164.221 5.2526 164.805 4.86719C165.393 4.47656 166.164 4.28125 167.117 4.28125C167.633 4.28125 168.115 4.33333 168.562 4.4375C169.016 4.53646 169.438 4.67188 169.828 4.84375L169.391 5.88281C169.036 5.73177 168.659 5.60417 168.258 5.5C167.857 5.39583 167.448 5.34375 167.031 5.34375C166.432 5.34375 165.971 5.44271 165.648 5.64062C165.331 5.83854 165.172 6.10938 165.172 6.45312C165.172 6.71875 165.245 6.9375 165.391 7.10938C165.542 7.28125 165.781 7.44271 166.109 7.59375C166.438 7.74479 166.87 7.92188 167.406 8.125C167.943 8.32292 168.406 8.52865 168.797 8.74219C169.188 8.95052 169.487 9.20573 169.695 9.50781C169.909 9.80469 170.016 10.1875 170.016 10.6562ZM176.198 4.28125C176.928 4.28125 177.553 4.44271 178.073 4.76562C178.594 5.08854 178.993 5.54167 179.269 6.125C179.545 6.70312 179.683 7.38021 179.683 8.15625V8.96094H173.769C173.784 9.96615 174.034 10.7318 174.519 11.2578C175.003 11.7839 175.685 12.0469 176.566 12.0469C177.107 12.0469 177.586 11.9974 178.003 11.8984C178.42 11.7995 178.852 11.6536 179.3 11.4609V12.6016C178.868 12.7943 178.438 12.9349 178.011 13.0234C177.589 13.112 177.089 13.1562 176.511 13.1562C175.688 13.1562 174.969 12.9896 174.355 12.6562C173.745 12.3177 173.271 11.8229 172.933 11.1719C172.594 10.5208 172.425 9.72396 172.425 8.78125C172.425 7.85938 172.579 7.0625 172.886 6.39062C173.198 5.71354 173.636 5.19271 174.198 4.82812C174.766 4.46354 175.433 4.28125 176.198 4.28125ZM176.183 5.34375C175.49 5.34375 174.938 5.57031 174.527 6.02344C174.115 6.47656 173.87 7.10938 173.792 7.92188H178.323C178.318 7.41146 178.238 6.96354 178.081 6.57812C177.93 6.1875 177.698 5.88542 177.386 5.67188C177.073 5.45312 176.672 5.34375 176.183 5.34375ZM186.577 4.28125C186.748 4.28125 186.928 4.29167 187.116 4.3125C187.303 4.32812 187.47 4.35156 187.616 4.38281L187.452 5.58594C187.311 5.54948 187.155 5.52083 186.983 5.5C186.811 5.47917 186.649 5.46875 186.498 5.46875C186.155 5.46875 185.829 5.53906 185.522 5.67969C185.22 5.8151 184.954 6.01302 184.725 6.27344C184.496 6.52865 184.316 6.83854 184.186 7.20312C184.056 7.5625 183.991 7.96354 183.991 8.40625V13H182.686V4.4375H183.764L183.905 6.01562H183.959C184.136 5.69792 184.35 5.40885 184.6 5.14844C184.85 4.88281 185.139 4.67188 185.467 4.51562C185.801 4.35938 186.17 4.28125 186.577 4.28125ZM191.916 13L188.666 4.4375H190.056L191.939 9.61719C192.069 9.97135 192.202 10.362 192.337 10.7891C192.473 11.2161 192.567 11.5599 192.619 11.8203H192.673C192.736 11.5599 192.84 11.2161 192.986 10.7891C193.132 10.3568 193.265 9.96615 193.384 9.61719L195.267 4.4375H196.658L193.4 13H191.916ZM202.036 4.29688C203.057 4.29688 203.815 4.52604 204.309 4.98438C204.804 5.44271 205.052 6.17448 205.052 7.17969V13H204.106L203.856 11.7344H203.794C203.554 12.0469 203.304 12.3099 203.044 12.5234C202.783 12.7318 202.481 12.8906 202.137 13C201.799 13.1042 201.382 13.1562 200.887 13.1562C200.367 13.1562 199.903 13.0651 199.497 12.8828C199.096 12.7005 198.778 12.4245 198.544 12.0547C198.315 11.6849 198.2 11.2161 198.2 10.6484C198.2 9.79427 198.539 9.13802 199.216 8.67969C199.893 8.22135 200.924 7.97135 202.309 7.92969L203.786 7.86719V7.34375C203.786 6.60417 203.627 6.08594 203.309 5.78906C202.992 5.49219 202.544 5.34375 201.966 5.34375C201.518 5.34375 201.091 5.40885 200.684 5.53906C200.278 5.66927 199.893 5.82292 199.528 6L199.13 5.01562C199.515 4.81771 199.958 4.64844 200.458 4.50781C200.958 4.36719 201.484 4.29688 202.036 4.29688ZM203.77 8.78125L202.466 8.83594C201.398 8.8776 200.645 9.05208 200.208 9.35938C199.77 9.66667 199.552 10.1016 199.552 10.6641C199.552 11.1536 199.7 11.5156 199.997 11.75C200.294 11.9844 200.687 12.1016 201.177 12.1016C201.937 12.1016 202.559 11.8906 203.044 11.4688C203.528 11.0469 203.77 10.4141 203.77 9.57031V8.78125ZM211.57 13.1562C210.487 13.1562 209.628 12.7865 208.992 12.0469C208.362 11.3073 208.047 10.2083 208.047 8.75C208.047 7.27604 208.37 6.16406 209.016 5.41406C209.661 4.65885 210.521 4.28125 211.594 4.28125C212.047 4.28125 212.443 4.34115 212.781 4.46094C213.12 4.58073 213.411 4.74219 213.656 4.94531C213.901 5.14323 214.107 5.36979 214.273 5.625H214.367C214.346 5.46354 214.326 5.24219 214.305 4.96094C214.284 4.67969 214.273 4.45052 214.273 4.27344V0.84375H215.57V13H214.523L214.328 11.7812H214.273C214.112 12.0365 213.906 12.2682 213.656 12.4766C213.411 12.6849 213.117 12.8516 212.773 12.9766C212.435 13.0964 212.034 13.1562 211.57 13.1562ZM211.773 12.0781C212.69 12.0781 213.339 11.8177 213.719 11.2969C214.099 10.776 214.289 10.0026 214.289 8.97656V8.74219C214.289 7.65365 214.107 6.81771 213.742 6.23438C213.383 5.65104 212.727 5.35938 211.773 5.35938C210.977 5.35938 210.38 5.66667 209.984 6.28125C209.589 6.89062 209.391 7.72396 209.391 8.78125C209.391 9.83333 209.586 10.6458 209.977 11.2188C210.372 11.7917 210.971 12.0781 211.773 12.0781ZM226.503 8.70312C226.503 9.40625 226.412 10.0339 226.23 10.5859C226.047 11.138 225.784 11.6042 225.441 11.9844C225.097 12.3646 224.68 12.6562 224.191 12.8594C223.706 13.0573 223.157 13.1562 222.542 13.1562C221.969 13.1562 221.443 13.0573 220.964 12.8594C220.49 12.6562 220.079 12.3646 219.73 11.9844C219.386 11.6042 219.118 11.138 218.925 10.5859C218.738 10.0339 218.644 9.40625 218.644 8.70312C218.644 7.76562 218.803 6.96875 219.12 6.3125C219.438 5.65104 219.891 5.14844 220.48 4.80469C221.073 4.45573 221.779 4.28125 222.597 4.28125C223.378 4.28125 224.06 4.45573 224.644 4.80469C225.232 5.15365 225.688 5.65885 226.011 6.32031C226.339 6.97656 226.503 7.77083 226.503 8.70312ZM219.988 8.70312C219.988 9.39062 220.079 9.98698 220.261 10.4922C220.443 10.9974 220.724 11.388 221.105 11.6641C221.485 11.9401 221.974 12.0781 222.573 12.0781C223.167 12.0781 223.654 11.9401 224.034 11.6641C224.42 11.388 224.704 10.9974 224.886 10.4922C225.068 9.98698 225.159 9.39062 225.159 8.70312C225.159 8.02083 225.068 7.43229 224.886 6.9375C224.704 6.4375 224.422 6.05208 224.042 5.78125C223.662 5.51042 223.17 5.375 222.566 5.375C221.675 5.375 221.021 5.66927 220.605 6.25781C220.193 6.84635 219.988 7.66146 219.988 8.70312ZM235.084 10.6562C235.084 11.2031 234.946 11.6641 234.67 12.0391C234.399 12.4089 234.009 12.6875 233.498 12.875C232.993 13.0625 232.389 13.1562 231.686 13.1562C231.087 13.1562 230.569 13.1094 230.131 13.0156C229.694 12.9219 229.311 12.7891 228.983 12.6172V11.4219C229.332 11.5938 229.748 11.75 230.233 11.8906C230.717 12.0312 231.212 12.1016 231.717 12.1016C232.457 12.1016 232.993 11.9818 233.327 11.7422C233.66 11.5026 233.827 11.1771 233.827 10.7656C233.827 10.5312 233.759 10.3255 233.623 10.1484C233.493 9.96615 233.272 9.79167 232.959 9.625C232.647 9.45312 232.215 9.26562 231.663 9.0625C231.116 8.85417 230.642 8.64844 230.241 8.44531C229.845 8.23698 229.538 7.98438 229.319 7.6875C229.105 7.39062 228.998 7.00521 228.998 6.53125C228.998 5.80729 229.29 5.2526 229.873 4.86719C230.462 4.47656 231.233 4.28125 232.186 4.28125C232.702 4.28125 233.183 4.33333 233.631 4.4375C234.084 4.53646 234.506 4.67188 234.897 4.84375L234.459 5.88281C234.105 5.73177 233.728 5.60417 233.327 5.5C232.926 5.39583 232.517 5.34375 232.1 5.34375C231.501 5.34375 231.04 5.44271 230.717 5.64062C230.399 5.83854 230.241 6.10938 230.241 6.45312C230.241 6.71875 230.314 6.9375 230.459 7.10938C230.61 7.28125 230.85 7.44271 231.178 7.59375C231.506 7.74479 231.939 7.92188 232.475 8.125C233.011 8.32292 233.475 8.52865 233.866 8.74219C234.256 8.95052 234.556 9.20573 234.764 9.50781C234.978 9.80469 235.084 10.1875 235.084 10.6562ZM248.216 13.1562C247.367 13.1562 246.583 13.0104 245.864 12.7188C245.151 12.4271 244.528 12.0182 243.997 11.4922C243.471 10.9661 243.062 10.3464 242.77 9.63281C242.484 8.91406 242.341 8.13281 242.341 7.28906C242.341 6.4401 242.486 5.65885 242.778 4.94531C243.07 4.22656 243.479 3.60417 244.005 3.07812C244.536 2.55208 245.158 2.14323 245.872 1.85156C246.591 1.5599 247.372 1.41406 248.216 1.41406C249.033 1.41406 249.796 1.5625 250.505 1.85938C251.218 2.15104 251.843 2.5625 252.38 3.09375C252.916 3.61979 253.335 4.23958 253.637 4.95312C253.94 5.66667 254.091 6.44531 254.091 7.28906C254.091 8.13281 253.945 8.91406 253.653 9.63281C253.361 10.3464 252.95 10.9661 252.419 11.4922C251.893 12.0182 251.27 12.4271 250.552 12.7188C249.838 13.0104 249.059 13.1562 248.216 13.1562ZM248.466 10.8594C247.414 10.8594 246.622 10.5365 246.091 9.89062C245.559 9.23958 245.294 8.3724 245.294 7.28906C245.294 6.59635 245.419 5.98438 245.669 5.45312C245.924 4.91667 246.291 4.4974 246.77 4.19531C247.255 3.88802 247.841 3.73438 248.528 3.73438C248.872 3.73438 249.213 3.77604 249.552 3.85938C249.89 3.94271 250.208 4.0599 250.505 4.21094L250.067 5.11719C249.807 4.98177 249.549 4.88021 249.294 4.8125C249.039 4.73958 248.789 4.70312 248.544 4.70312C247.882 4.70312 247.369 4.9349 247.005 5.39844C246.64 5.85677 246.458 6.48698 246.458 7.28906C246.458 8.1224 246.622 8.76302 246.95 9.21094C247.283 9.65885 247.807 9.88281 248.52 9.88281C248.781 9.88281 249.059 9.84896 249.356 9.78125C249.658 9.71354 249.945 9.625 250.216 9.51562V10.4688C249.96 10.5833 249.697 10.6771 249.427 10.75C249.156 10.8229 248.835 10.8594 248.466 10.8594ZM248.216 12.3594C248.908 12.3594 249.557 12.2344 250.161 11.9844C250.77 11.7344 251.304 11.3828 251.762 10.9297C252.221 10.4714 252.58 9.9349 252.841 9.32031C253.101 8.70052 253.231 8.02344 253.231 7.28906C253.231 6.59115 253.106 5.9375 252.856 5.32812C252.611 4.71875 252.265 4.17969 251.817 3.71094C251.369 3.24219 250.838 2.8776 250.223 2.61719C249.614 2.35156 248.945 2.21875 248.216 2.21875C247.486 2.21875 246.815 2.34375 246.2 2.59375C245.591 2.84375 245.059 3.19792 244.606 3.65625C244.158 4.10938 243.809 4.64583 243.559 5.26562C243.315 5.88021 243.192 6.55469 243.192 7.28906C243.192 7.98698 243.315 8.64323 243.559 9.25781C243.804 9.86719 244.151 10.4062 244.598 10.875C245.052 11.3385 245.583 11.7031 246.192 11.9688C246.807 12.2292 247.481 12.3594 248.216 12.3594Z" fill="#FFDAB8"/>
</svg>
