<svg width="43" height="55" viewBox="0 0 43 55" fill="none" xmlns="http://www.w3.org/2000/svg">
<g clip-path="url(#clip0_2001_2825)">
<path d="M19.7701 54.8623C29.597 54.8623 37.5632 53.9218 37.5632 52.7617C37.5632 51.6016 29.597 50.6611 19.7701 50.6611C9.94324 50.6611 1.97699 51.6016 1.97699 52.7617C1.97699 53.9218 9.94324 54.8623 19.7701 54.8623Z" fill="#B2784A"/>
<path fill-rule="evenodd" clip-rule="evenodd" d="M38.0352 39.9179C39.0289 37.3693 39.5402 34.6378 39.5402 31.8794H36.4264C36.4264 34.216 35.9969 36.5298 35.1624 38.6885C34.3278 40.8474 33.1045 42.8088 31.5625 44.4611C30.0202 46.1134 28.1894 47.4239 26.1746 48.318C24.1599 49.2123 22.0004 49.6725 19.8195 49.6725C17.6387 49.6725 15.4792 49.2123 13.4644 48.318C11.4495 47.4239 9.61877 46.1134 8.07668 44.4611C6.53459 42.8088 5.31134 40.8474 4.47677 38.6885C3.6422 36.5298 3.21264 34.216 3.21264 31.8794H0C0 34.6378 0.511369 37.3693 1.50491 39.9179C2.49845 42.4665 3.95471 44.7821 5.79054 46.7327C7.62634 48.6832 9.8058 50.2305 12.2044 51.2862C14.603 52.3417 17.1738 52.8851 19.7701 52.8851C22.3664 52.8851 24.9373 52.3417 27.3359 51.2862C29.7345 50.2305 31.9139 48.6832 33.7498 46.7327C35.5854 44.7821 37.0418 42.4665 38.0352 39.9179Z" fill="#B2784A"/>
<path fill-rule="evenodd" clip-rule="evenodd" d="M33.5388 38.0264C34.2762 36.1191 34.6635 34.0778 34.6795 32.0143C32.9835 32.2805 29.2796 32.9292 26.8132 33.8564C24.8545 34.5928 23.5212 35.8685 22.244 37.0905C20.5867 38.6764 19.0237 40.172 16.3103 40.2817C14.1541 40.3689 12.8354 40.1922 10.8735 39.2932C7.44728 37.7232 4.69537 31.8794 4.69537 31.8794C4.69537 33.9889 5.08316 36.0776 5.83661 38.0264C6.59005 39.9755 7.69436 41.7462 9.08655 43.2378C10.4787 44.7295 12.1314 45.9127 13.9504 46.7198C15.7694 47.5272 17.7189 47.9426 19.6877 47.9426C21.6566 47.9426 23.6061 47.5272 25.4251 46.7198C27.244 45.9127 28.8968 44.7295 30.2888 43.2378C31.6811 41.7462 32.7855 39.9755 33.5388 38.0264Z" fill="#8F542E"/>
<path fill-rule="evenodd" clip-rule="evenodd" d="M41.0771 36.2466C40.4882 35.6636 39.7849 35.2094 39.0116 34.9126L36.8668 40.4996L33.8138 45.647C34.5262 46.0696 35.3188 46.3397 36.1412 46.4401C36.9634 46.5406 37.7977 46.4692 38.591 46.2305C39.3843 45.9918 40.1195 45.5909 40.7499 45.0534C41.3803 44.5159 41.8921 43.8534 42.2532 43.1078C42.6142 42.3622 42.8166 41.5497 42.8473 40.7218C42.8781 39.8939 42.7365 39.0688 42.4318 38.2985C42.1271 37.5279 41.6657 36.8293 41.0771 36.2466ZM39.6304 38.122C39.2849 37.78 38.872 37.5134 38.418 37.3391L37.1591 40.6187L35.367 43.6401C35.7854 43.8882 36.2505 44.0466 36.7331 44.1057C37.216 44.1645 37.7055 44.1227 38.1711 43.9826C38.637 43.8425 39.0684 43.6072 39.4384 43.2917C39.8086 42.9763 40.1091 42.5874 40.3209 42.1497C40.5329 41.712 40.6515 41.2351 40.6696 40.7492C40.6876 40.2631 40.6046 39.7788 40.4257 39.3265C40.247 38.8743 39.9761 38.4643 39.6304 38.122Z" fill="#B2784A"/>
<path d="M14.3344 7.41357C14.3344 7.41357 13.7121 11.1871 14.3344 13.4682C15.3607 17.23 20.2956 17.1507 20.8833 21.0055C21.4289 24.5845 17.5471 29.6549 17.5471 29.6549C17.5471 29.6549 18.1394 26.1101 17.5471 23.971C16.5621 20.4141 12.0663 20.5262 11.2453 16.9279C10.3764 13.1193 14.3344 7.41357 14.3344 7.41357Z" fill="#8F542E"/>
<path d="M16.3103 11.3678C15.0047 6.88458 20.0172 0 20.0172 0C20.0172 0 18.0649 6.06244 19.2759 9.6379C20.5463 13.389 25.3334 13.1862 26.1954 17.0517C27.2064 21.5851 21.3764 27.9252 21.3764 27.9252C21.3764 27.9252 24.3613 22.1441 23.3534 18.5344C22.2981 14.7549 17.4076 15.1353 16.3103 11.3678Z" fill="#8F542E"/>
</g>
<defs>
<clipPath id="clip0_2001_2825">
<rect width="43" height="54.862" fill="white"/>
</clipPath>
</defs>
</svg>
