<svg width="20" height="21" viewBox="0 0 20 21" fill="none" xmlns="http://www.w3.org/2000/svg">
<path d="M17.1429 0.428711H2.85714C1.27902 0.428711 0 1.70773 0 3.28585V17.5716C0 19.1497 1.27902 20.4287 2.85714 20.4287H17.1429C18.721 20.4287 20 19.1497 20 17.5716V3.28585C20 1.70773 18.7188 0.428711 17.1429 0.428711ZM15.6964 13.3528L15.1777 15.6024C15.1048 15.9205 14.825 16.143 14.4973 16.143C8.86786 16.143 4.2875 11.5626 4.2875 5.92871C4.2875 5.60157 4.51 5.32201 4.82812 5.24925L7.07723 4.73005C7.40509 4.65402 7.74152 4.8242 7.87768 5.1346L8.91652 7.55782C9.0379 7.84313 8.95593 8.17523 8.71598 8.37121L7.51339 9.35728C8.27188 10.9024 9.52857 12.1586 11.0746 12.9176L12.0576 11.7162C12.2515 11.4755 12.5866 11.3925 12.8719 11.516L15.2933 12.554C15.6027 12.6876 15.7723 13.0269 15.6964 13.3528Z" fill="#B2784A"/>
</svg>
