<svg width="25" height="26" viewBox="0 0 25 26" fill="none" xmlns="http://www.w3.org/2000/svg">
<path d="M21.4286 0.786133H3.57143C1.59766 0.786133 0 2.38379 0 4.35756V22.2147C0 24.189 1.5971 25.7861 3.57143 25.7861H21.4286C23.4029 25.7861 25 24.189 25 22.2147V4.35756C25 2.38379 23.404 0.786133 21.4286 0.786133ZM21.4286 17.7504C21.4286 18.7365 20.6289 19.5361 19.6429 19.5361H5.35714C4.37109 19.5361 3.57143 18.7365 3.57143 17.7504V11.6064L11.3002 15.472C11.6797 15.6578 12.0871 15.7527 12.5 15.7527C12.9129 15.7527 13.3231 15.6585 13.6981 15.471L21.4286 11.6064V17.7504ZM21.4286 9.60868L12.9018 13.8732C12.6507 13.9987 12.3542 13.9987 12.1032 13.8732L3.57143 9.60868V8.82185C3.57143 7.8358 4.37109 7.03613 5.35714 7.03613H19.6429C20.6289 7.03613 21.4286 7.8358 21.4286 8.82185V9.60868Z" fill="#B2784A"/>
</svg>
