<svg width="25" height="26" viewBox="0 0 25 26" fill="none" xmlns="http://www.w3.org/2000/svg">
<path d="M21.4286 0.786133H3.57143C1.59877 0.786133 0 2.38491 0 4.35756V22.2147C0 24.1874 1.59877 25.7861 3.57143 25.7861H21.4286C23.4012 25.7861 25 24.1874 25 22.2147V4.35756C25 2.38491 23.3984 0.786133 21.4286 0.786133ZM19.6205 16.9413L18.9721 19.7532C18.881 20.1508 18.5312 20.429 18.1217 20.429C11.0848 20.429 5.35938 14.7035 5.35938 7.66113C5.35938 7.2522 5.6375 6.90276 6.03516 6.8118L8.84654 6.16281C9.25636 6.06777 9.6769 6.2805 9.8471 6.6685L11.1456 9.69752C11.2974 10.0542 11.1949 10.4693 10.895 10.7143L9.39174 11.9468C10.3398 13.8782 11.9107 15.4485 13.8432 16.3972L15.072 14.8955C15.3144 14.5947 15.7333 14.4909 16.0898 14.6453L19.1166 15.9427C19.5033 16.1098 19.7154 16.5339 19.6205 16.9413Z" fill="#B2784A"/>
</svg>
