<svg width="25" height="26" viewBox="0 0 25 26" fill="none" xmlns="http://www.w3.org/2000/svg">
<path d="M12.5 10.3096C11.9113 10.3098 11.336 10.4846 10.8466 10.8118C10.3573 11.139 9.97593 11.6039 9.75081 12.1478C9.52569 12.6917 9.46691 13.2902 9.58188 13.8675C9.69686 14.4448 9.98044 14.9751 10.3968 15.3913C10.8131 15.8074 11.3435 16.0908 11.9208 16.2056C12.4982 16.3203 13.0966 16.2613 13.6405 16.036C14.1843 15.8107 14.6491 15.4292 14.9761 14.9397C15.3031 14.4502 15.4777 13.8748 15.4777 13.2861C15.4771 12.4967 15.1631 11.7398 14.6048 11.1816C14.0465 10.6235 13.2894 10.3099 12.5 10.3096V10.3096ZM19.4593 8.02162C19.3077 7.63761 19.0789 7.28882 18.787 6.99691C18.4951 6.70499 18.1463 6.47617 17.7623 6.32464C16.5904 5.86203 13.8002 5.96582 12.5 5.96582C11.1998 5.96582 8.41239 5.85812 7.23717 6.32464C6.85315 6.47617 6.50436 6.70499 6.21245 6.99691C5.92053 7.28882 5.69171 7.63761 5.54018 8.02162C5.07812 9.1935 5.18136 11.9865 5.18136 13.2856C5.18136 14.5847 5.07812 17.3743 5.54241 18.5501C5.69394 18.9341 5.92276 19.2829 6.21468 19.5748C6.5066 19.8667 6.85538 20.0955 7.2394 20.2471C8.41127 20.7097 11.2015 20.6059 12.5022 20.6059C13.803 20.6059 16.5893 20.7136 17.7645 20.2471C18.1485 20.0955 18.4973 19.8667 18.7892 19.5748C19.0811 19.2829 19.31 18.9341 19.4615 18.5501C19.9275 17.3782 19.8203 14.5852 19.8203 13.2861C19.8203 11.987 19.9275 9.19796 19.4615 8.02218L19.4593 8.02162ZM12.5 17.862C11.595 17.862 10.7103 17.5937 9.95777 17.0908C9.20527 16.588 8.61876 15.8734 8.27243 15.0373C7.92609 14.2011 7.83547 13.2811 8.01203 12.3934C8.18859 11.5058 8.6244 10.6904 9.26435 10.0505C9.90431 9.41054 10.7197 8.97473 11.6073 8.79816C12.4949 8.6216 13.415 8.71222 14.2511 9.05856C15.0873 9.4049 15.8019 9.9914 16.3047 10.7439C16.8075 11.4964 17.0759 12.3811 17.0759 13.2861C17.0766 13.8873 16.9588 14.4826 16.7291 15.0381C16.4994 15.5936 16.1623 16.0984 15.7373 16.5234C15.3122 16.9485 14.8075 17.2855 14.252 17.5152C13.6965 17.7449 13.1011 17.8628 12.5 17.862V17.862ZM17.2645 9.58636C17.0532 9.58647 16.8467 9.52392 16.671 9.40662C16.4952 9.28933 16.3583 9.12256 16.2773 8.9274C16.1964 8.73224 16.1752 8.51747 16.2163 8.31025C16.2575 8.10302 16.3592 7.91266 16.5085 7.76323C16.6579 7.6138 16.8482 7.51202 17.0554 7.47076C17.2626 7.4295 17.4774 7.45062 17.6726 7.53144C17.8678 7.61227 18.0346 7.74917 18.152 7.92482C18.2694 8.10048 18.332 8.30701 18.332 8.51828C18.3326 8.65857 18.3055 8.79761 18.2522 8.9274C18.199 9.05719 18.1206 9.17519 18.0216 9.27463C17.9227 9.37407 17.805 9.45299 17.6755 9.50687C17.5459 9.56075 17.407 9.58852 17.2667 9.58859L17.2645 9.58636ZM22.3214 0.786133H2.67857C1.96817 0.786133 1.28686 1.06834 0.784535 1.57067C0.282206 2.073 0 2.7543 0 3.4647L0 23.1076C0 23.818 0.282206 24.4993 0.784535 25.0016C1.28686 25.5039 1.96817 25.7861 2.67857 25.7861H22.3214C23.0318 25.7861 23.7131 25.5039 24.2155 25.0016C24.7178 24.4993 25 23.818 25 23.1076V3.4647C25 2.7543 24.7178 2.073 24.2155 1.57067C23.7131 1.06834 23.0318 0.786133 22.3214 0.786133V0.786133ZM21.3661 16.9692C21.2941 18.3994 20.9676 19.6667 19.9235 20.708C18.8795 21.7493 17.6133 22.0824 16.1847 22.1505C14.7109 22.2337 10.2924 22.2337 8.81864 22.1505C7.38839 22.0785 6.12556 21.7515 5.0798 20.708C4.03404 19.6645 3.70536 18.3966 3.63728 16.9692C3.55413 15.4948 3.55413 11.0758 3.63728 9.6031C3.70926 8.17285 4.03181 6.90555 5.0798 5.86426C6.12779 4.82296 7.39397 4.49372 8.81864 4.42564C10.2924 4.34249 14.7109 4.34249 16.1847 4.42564C17.615 4.49763 18.8817 4.82464 19.9235 5.86816C20.9654 6.91169 21.298 8.17955 21.3661 9.60979C21.4492 11.0785 21.4492 15.4937 21.3661 16.9692Z" fill="#B2784A"/>
</svg>
